<svg width="256" height="256" viewBox="0 0 256 256" fill="none" xmlns="http://www.w3.org/2000/svg">
<path fill-rule="evenodd" clip-rule="evenodd" d="M56 104C58.1217 104 60.1566 104.843 61.6569 106.343C63.1571 107.843 64 109.878 64 112V128C64 144.974 70.7428 161.253 82.7452 173.255C94.7475 185.257 111.026 192 128 192C144.974 192 161.253 185.257 173.255 173.255C185.257 161.253 192 144.974 192 128V112C192 109.878 192.843 107.843 194.343 106.343C195.843 104.843 197.878 104 200 104C202.122 104 204.157 104.843 205.657 106.343C207.157 107.843 208 109.878 208 112V128C208 147.832 200.634 166.958 187.33 181.666C174.026 196.374 155.733 205.617 136 207.6V240H184C186.122 240 188.157 240.843 189.657 242.343C191.157 243.843 192 245.878 192 248C192 250.122 191.157 252.157 189.657 253.657C188.157 255.157 186.122 256 184 256H72C69.8783 256 67.8434 255.157 66.3431 253.657C64.8429 252.157 64 250.122 64 248C64 245.878 64.8429 243.843 66.3431 242.343C67.8434 240.843 69.8783 240 72 240H120V207.6C100.267 205.617 81.974 196.374 68.6701 181.666C55.3661 166.958 47.9998 147.832 48 128V112C48 109.878 48.8429 107.843 50.3431 106.343C51.8434 104.843 53.8783 104 56 104Z" fill="#46CE7E"/>
<path fill-rule="evenodd" clip-rule="evenodd" d="M160 128V48C160 39.5131 156.629 31.3737 150.627 25.3726C144.626 19.3714 136.487 16 128 16C119.513 16 111.374 19.3714 105.373 25.3726C99.3714 31.3737 96 39.5131 96 48V128C96 136.487 99.3714 144.626 105.373 150.627C111.374 156.629 119.513 160 128 160C136.487 160 144.626 156.629 150.627 150.627C156.629 144.626 160 136.487 160 128ZM128 0C115.27 0 103.061 5.05713 94.0589 14.0589C85.0571 23.0606 80 35.2696 80 48V128C80 140.73 85.0571 152.939 94.0589 161.941C103.061 170.943 115.27 176 128 176C140.73 176 152.939 170.943 161.941 161.941C170.943 152.939 176 140.73 176 128V48C176 35.2696 170.943 23.0606 161.941 14.0589C152.939 5.05713 140.73 0 128 0V0Z" fill="#46CE7E"/>
</svg>
